name rise30.6535peak61.5555fall82.9339.mot
datacolumns 19
datarows 27
range 6.86999300000000 6.91330000000000
endheader
time	ground_force1_vx	ground_force1_vy	ground_force1_vz	ground_force1_px	ground_force1_py	ground_force1_pz	ground_force2_vx	ground_force2_vy	ground_force2_vz	ground_force2_px	ground_force2_py	ground_force2_pz	ground_torque1_x	ground_torque1_y	ground_torque1_z	ground_torque2_x	ground_torque2_y	ground_torque2_z	
6.86999300000000	65.19368200000000	806.49597900000003	65.51620699999999	0.32211300000000	0.00000000000000	0.13611900000000	0.00000000000000	0.00000000000000	0.00000000000000	0.00000000000000	0.00000000000000	0.00000000000000	0.00000000000000	24.68694800000000	0.00000000000000	0.00000000000000	0.00000000000000	0.00000000000000	
6.87163400000000	64.33213300000000	806.98875199999998	65.46600599999999	0.32091500000000	0.00000000000000	0.13618300000000	0.00000000000000	0.00000000000000	0.00000000000000	0.00000000000000	0.00000000000000	0.00000000000000	0.00000000000000	24.71008800000000	0.00000000000000	0.00000000000000	0.00000000000000	0.00000000000000	
6.87330200000000	63.47560700000000	807.32844299999999	65.40908700000000	0.31973900000000	0.00000000000000	0.13624700000000	0.00000000000000	0.00000000000000	0.00000000000000	0.00000000000000	0.00000000000000	0.00000000000000	0.00000000000000	24.72962900000000	0.00000000000000	0.00000000000000	0.00000000000000	0.00000000000000	
6.87497100000000	62.62480100000000	807.51728500000002	65.34575500000000	0.31858400000000	0.00000000000000	0.13631200000000	0.00000000000000	0.00000000000000	0.00000000000000	0.00000000000000	0.00000000000000	0.00000000000000	0.00000000000000	24.74563900000000	0.00000000000000	0.00000000000000	0.00000000000000	0.00000000000000	
6.87664100000000	61.78032700000000	807.55771900000002	65.27627099999999	0.31744900000000	0.00000000000000	0.13637900000000	0.00000000000000	0.00000000000000	0.00000000000000	0.00000000000000	0.00000000000000	0.00000000000000	0.00000000000000	24.75816600000000	0.00000000000000	0.00000000000000	0.00000000000000	0.00000000000000	
6.87830700000000	60.94271300000000	807.45238900000004	65.20085600000000	0.31633400000000	0.00000000000000	0.13644600000000	0.00000000000000	0.00000000000000	0.00000000000000	0.00000000000000	0.00000000000000	0.00000000000000	0.00000000000000	24.76723900000000	0.00000000000000	0.00000000000000	0.00000000000000	0.00000000000000	
6.87997200000000	60.11241000000000	807.20415000000003	65.11968800000000	0.31523700000000	0.00000000000000	0.13651500000000	0.00000000000000	0.00000000000000	0.00000000000000	0.00000000000000	0.00000000000000	0.00000000000000	0.00000000000000	24.77287100000000	0.00000000000000	0.00000000000000	0.00000000000000	0.00000000000000	
6.88163600000000	59.28978900000000	806.81605800000000	65.03291000000000	0.31415800000000	0.00000000000000	0.13658400000000	0.00000000000000	0.00000000000000	0.00000000000000	0.00000000000000	0.00000000000000	0.00000000000000	0.00000000000000	24.77505800000000	0.00000000000000	0.00000000000000	0.00000000000000	0.00000000000000	
6.88329900000000	58.47515200000000	806.29137600000001	64.94062900000000	0.31309500000000	0.00000000000000	0.13665400000000	0.00000000000000	0.00000000000000	0.00000000000000	0.00000000000000	0.00000000000000	0.00000000000000	0.00000000000000	24.77378100000000	0.00000000000000	0.00000000000000	0.00000000000000	0.00000000000000	
6.88497100000000	57.66873000000000	805.63356599999997	64.84292300000000	0.31204800000000	0.00000000000000	0.13672600000000	0.00000000000000	0.00000000000000	0.00000000000000	0.00000000000000	0.00000000000000	0.00000000000000	0.00000000000000	24.76901100000000	0.00000000000000	0.00000000000000	0.00000000000000	0.00000000000000	
6.88663800000000	56.87069300000000	804.84628399999997	64.73984100000000	0.31101500000000	0.00000000000000	0.13679800000000	0.00000000000000	0.00000000000000	0.00000000000000	0.00000000000000	0.00000000000000	0.00000000000000	0.00000000000000	24.76070800000000	0.00000000000000	0.00000000000000	0.00000000000000	0.00000000000000	
6.88830300000000	56.08114700000000	803.93338000000006	64.63140700000000	0.30999400000000	0.00000000000000	0.13687100000000	0.00000000000000	0.00000000000000	0.00000000000000	0.00000000000000	0.00000000000000	0.00000000000000	0.00000000000000	24.74882400000000	0.00000000000000	0.00000000000000	0.00000000000000	0.00000000000000	
6.88996800000000	55.30014600000000	802.89888599999995	64.51762400000000	0.30898500000000	0.00000000000000	0.13694600000000	0.00000000000000	0.00000000000000	0.00000000000000	0.00000000000000	0.00000000000000	0.00000000000000	0.00000000000000	24.73330200000000	0.00000000000000	0.00000000000000	0.00000000000000	0.00000000000000	
6.89163900000000	54.52769300000000	801.74701200000004	64.39847800000000	0.30798600000000	0.00000000000000	0.13702100000000	0.00000000000000	0.00000000000000	0.00000000000000	0.00000000000000	0.00000000000000	0.00000000000000	0.00000000000000	24.71408400000000	0.00000000000000	0.00000000000000	0.00000000000000	0.00000000000000	
6.89330400000000	53.76374300000000	800.48213599999997	64.27393800000000	0.30699500000000	0.00000000000000	0.13709700000000	0.00000000000000	0.00000000000000	0.00000000000000	0.00000000000000	0.00000000000000	0.00000000000000	0.00000000000000	24.69110600000000	0.00000000000000	0.00000000000000	0.00000000000000	0.00000000000000	
6.89496600000000	53.00821100000000	799.10879699999998	64.14396600000001	0.30601000000000	0.00000000000000	0.13717500000000	0.00000000000000	0.00000000000000	0.00000000000000	0.00000000000000	0.00000000000000	0.00000000000000	0.00000000000000	24.66430300000000	0.00000000000000	0.00000000000000	0.00000000000000	0.00000000000000	
6.89663200000000	52.26097500000000	797.63167999999996	64.00851200000000	0.30503100000000	0.00000000000000	0.13725300000000	0.00000000000000	0.00000000000000	0.00000000000000	0.00000000000000	0.00000000000000	0.00000000000000	0.00000000000000	24.63361300000000	0.00000000000000	0.00000000000000	0.00000000000000	0.00000000000000	
6.89830700000000	51.52188000000000	796.05561399999999	63.86752400000000	0.30405600000000	0.00000000000000	0.13733200000000	0.00000000000000	0.00000000000000	0.00000000000000	0.00000000000000	0.00000000000000	0.00000000000000	0.00000000000000	24.59897400000000	0.00000000000000	0.00000000000000	0.00000000000000	0.00000000000000	
6.89997200000000	50.79074400000000	794.38554999999997	63.72094800000000	0.30308300000000	0.00000000000000	0.13741200000000	0.00000000000000	0.00000000000000	0.00000000000000	0.00000000000000	0.00000000000000	0.00000000000000	0.00000000000000	24.56032900000000	0.00000000000000	0.00000000000000	0.00000000000000	0.00000000000000	
6.90163300000000	50.06736100000000	792.62655700000005	63.56872900000000	0.30211000000000	0.00000000000000	0.13749300000000	0.00000000000000	0.00000000000000	0.00000000000000	0.00000000000000	0.00000000000000	0.00000000000000	0.00000000000000	24.51762300000000	0.00000000000000	0.00000000000000	0.00000000000000	0.00000000000000	
6.90330400000000	49.35150700000000	790.78380600000003	63.41082000000000	0.30113700000000	0.00000000000000	0.13757400000000	0.00000000000000	0.00000000000000	0.00000000000000	0.00000000000000	0.00000000000000	0.00000000000000	0.00000000000000	24.47081300000000	0.00000000000000	0.00000000000000	0.00000000000000	0.00000000000000	
6.90498400000000	48.64294200000000	788.86255500000004	63.24717900000000	0.30016000000000	0.00000000000000	0.13765700000000	0.00000000000000	0.00000000000000	0.00000000000000	0.00000000000000	0.00000000000000	0.00000000000000	0.00000000000000	24.41986100000000	0.00000000000000	0.00000000000000	0.00000000000000	0.00000000000000	
6.90663900000000	47.94141600000000	786.86814100000004	63.07777400000000	0.29918000000000	0.00000000000000	0.13774000000000	0.00000000000000	0.00000000000000	0.00000000000000	0.00000000000000	0.00000000000000	0.00000000000000	0.00000000000000	24.36473800000000	0.00000000000000	0.00000000000000	0.00000000000000	0.00000000000000	
6.90830200000000	47.24667200000000	784.80595700000003	62.90258400000000	0.29819400000000	0.00000000000000	0.13782400000000	0.00000000000000	0.00000000000000	0.00000000000000	0.00000000000000	0.00000000000000	0.00000000000000	0.00000000000000	24.30542700000000	0.00000000000000	0.00000000000000	0.00000000000000	0.00000000000000	
6.90997100000000	46.55844800000000	782.68144800000005	62.72160300000000	0.29720100000000	0.00000000000000	0.13790900000000	0.00000000000000	0.00000000000000	0.00000000000000	0.00000000000000	0.00000000000000	0.00000000000000	0.00000000000000	24.24192300000000	0.00000000000000	0.00000000000000	0.00000000000000	0.00000000000000	
6.91163400000000	45.87648500000000	780.50008900000000	62.53483900000000	0.29619900000000	0.00000000000000	0.13799400000000	0.00000000000000	0.00000000000000	0.00000000000000	0.00000000000000	0.00000000000000	0.00000000000000	0.00000000000000	24.17423100000000	0.00000000000000	0.00000000000000	0.00000000000000	0.00000000000000	
6.91330000000000	45.20052400000000	778.26737200000002	62.34231900000000	0.29518800000000	0.00000000000000	0.13808100000000	0.00000000000000	0.00000000000000	0.00000000000000	0.00000000000000	0.00000000000000	0.00000000000000	0.00000000000000	24.10237100000000	0.00000000000000	0.00000000000000	0.00000000000000	0.00000000000000	
